{
  "accessors": [
    {
      "bufferView": 1,
      "componentType": 5126,
      "count": 62165,
      "max": [
        0.8782361745834351,
        1.0526607036590576,
        1.5427026748657227
      ],
      "min": [
        -0.8781623840332031,
        -1.051081657409668,
        -1.5433628559112549
      ],
      "type": "VEC3"
    },
    {
      "bufferView": 1,
      "byteOffset": 745980,
      "componentType": 5126,
      "count": 62165,
      "max": [
        0.9999962449073792,
        0.9999972581863403,
        0.9999298453330994
      ],
      "min": [
        -0.9999879598617554,
        -0.9999985694885254,
        -0.9999934434890747
      ],
      "type": "VEC3"
    },
    {
      "bufferView": 0,
      "componentType": 5125,
      "count": 372192,
      "type": "SCALAR"
    }
  ],
  "asset": {
    "extras": {
      "author": "ImJeno (https://sketchfab.com/ImJeno)",
      "license": "CC-BY-4.0 (http://creativecommons.org/licenses/by/4.0/)",
      "source": "https://sketchfab.com/3d-models/planes-of-head-male-6af48bf77ec64b379a262effdc3f819c",
      "title": "Planes of Head Male"
    },
    "generator": "Sketchfab-12.66.0",
    "version": "2.0"
  },
  "bufferViews": [
    {
      "buffer": 0,
      "byteLength": 1488768,
      "name": "floatBufferViews",
      "target": 34963
    },
    {
      "buffer": 0,
      "byteLength": 1491960,
      "byteOffset": 1488768,
      "byteStride": 12,
      "name": "floatBufferViews",
      "target": 34962
    }
  ],
  "buffers": [
    {
      "byteLength": 2980728,
      "uri": "scene.bin"
    }
  ],
  "materials": [
    {
      "doubleSided": true,
      "name": "material_0",
      "pbrMetallicRoughness": {
        "metallicFactor": 0.0,
        "roughnessFactor": 0.6
      }
    }
  ],
  "meshes": [
    {
      "name": "Object_0",
      "primitives": [
        {
          "attributes": {
            "NORMAL": 1,
            "POSITION": 0
          },
          "indices": 2,
          "material": 0,
          "mode": 4
        }
      ]
    }
  ],
  "nodes": [
    {
      "children": [
        1
      ],
      "matrix": [
        1.0,
        0.0,
        0.0,
        0.0,
        0.0,
        3.828568672208042e-16,
        -1.0,
        0.0,
        0.0,
        1.0,
        3.828568672208042e-16,
        0.0,
        0.0,
        -1.0842021724855044e-19,
        -2.407412430484045e-35,
        1.0
      ],
      "name": "Sketchfab_model"
    },
    {
      "children": [
        2
      ],
      "name": "Male_PlanesofHead_128.OBJ.cleaner.materialmerger.gles"
    },
    {
      "mesh": 0,
      "name": "Object_2"
    }
  ],
  "scene": 0,
  "scenes": [
    {
      "name": "Sketchfab_Scene",
      "nodes": [
        0
      ]
    }
  ]
}
